<svg xmlns="http://www.w3.org/2000/svg" viewBox="-30 -90 1560 1420"><rect x="-30" y="-90" width="1560" height="1420" fill="#172026"/><text x="20" y="-35" fill="white" font-size="32" font-family="sans-serif">ЛУНАПАРК ЭЙФОРИЯ · REVISION 3</text><g transform="translate(0 1300) scale(1 -1)">
<polygon points="40.0,50.0 600.0,50.0 600.0,365.0 40.0,365.0" fill="#39484e" stroke="#809197" stroke-width="2"/>
<polygon points="40.0,370.0 480.0,370.0 480.0,925.0 40.0,925.0" fill="#524b36" stroke="#809197" stroke-width="2"/>
<polygon points="485.0,430.0 1010.0,430.0 1060.0,740.0 920.0,935.0 480.0,925.0" fill="#40594e" stroke="#809197" stroke-width="2"/>
<polygon points="1065.0,100.0 1470.0,100.0 1470.0,935.0 1065.0,935.0" fill="#4a4560" stroke="#809197" stroke-width="2"/>
<polygon points="50.0,940.0 700.0,940.0 700.0,1260.0 50.0,1260.0" fill="#61474b" stroke="#809197" stroke-width="2"/>
<polygon points="705.0,940.0 1470.0,940.0 1470.0,1260.0 705.0,1260.0" fill="#3c5962" stroke="#809197" stroke-width="2"/>
<polygon points="490.0,470.0 620.0,400.0 860.0,420.0 1000.0,540.0 1020.0,700.0 920.0,870.0 700.0,920.0 520.0,800.0 450.0,620.0" fill="#295b78"/>
<polyline points="160,180 400,200 510,360 740,250 1340,220 1140,370" stroke="#b2b8b7" stroke-width="30" fill="none" stroke-linejoin="round"/>
<polyline points="160,180 200,330 380,390 310,560 320,780 330,930" stroke="#b2b8b7" stroke-width="24" fill="none" stroke-linejoin="round"/>
<polyline points="200,330 170,620 165,820 220,1060 330,1170 530,1080 750,1080 1250,1160 1390,1040" stroke="#b2b8b7" stroke-width="22" fill="none" stroke-linejoin="round"/>
<polyline points="380,390 510,360 720,345 750,355" stroke="#b2b8b7" stroke-width="24" fill="none" stroke-linejoin="round"/>
<polyline points="310,560 420,620 420,650 460,890 330,930" stroke="#b2b8b7" stroke-width="24" fill="none" stroke-linejoin="round"/>
<polyline points="320,780 460,890 760,975 750,1080" stroke="#b2b8b7" stroke-width="24" fill="none" stroke-linejoin="round"/>
<polyline points="330,930 330,1020 410,1080 530,1080" stroke="#b2b8b7" stroke-width="24" fill="none" stroke-linejoin="round"/>
<polyline points="220,1060 330,1020 330,1170" stroke="#b2b8b7" stroke-width="22" fill="none" stroke-linejoin="round"/>
<polyline points="1340,220 1410,520 1210,600 1140,820 1080,1040 1180,1040 1250,1040 1390,1040" stroke="#b2b8b7" stroke-width="24" fill="none" stroke-linejoin="round"/>
<polyline points="1140,370 1210,440 1290,500 1410,520" stroke="#b2b8b7" stroke-width="24" fill="none" stroke-linejoin="round"/>
<polyline points="1210,440 1210,600 1080,670 1100,700" stroke="#b2b8b7" stroke-width="26" fill="none" stroke-linejoin="round"/>
<polyline points="1410,520 1390,1040" stroke="#b2b8b7" stroke-width="22" fill="none" stroke-linejoin="round"/>
<polyline points="1250,1040 1250,1160" stroke="#b2b8b7" stroke-width="24" fill="none" stroke-linejoin="round"/>
<polyline points="1080,1040 1120,950 750,1080" stroke="#b2b8b7" stroke-width="24" fill="none" stroke-linejoin="round"/>
<polyline points="1250,1160 1160,1160 750,1080" stroke="#b2b8b7" stroke-width="22" fill="none" stroke-linejoin="round"/>
<polyline points="760,975 835,1020 1080,1040" stroke="#b2b8b7" stroke-width="24" fill="none" stroke-linejoin="round"/>
<polyline points="740,250 720,345 1140,370 1080,670" stroke="#b2b8b7" stroke-width="26" fill="none" stroke-linejoin="round"/>
<polyline points="640,650 750,565 870,650 755,800 640,650" stroke="#daaf68" stroke-width="24" fill="none" stroke-linejoin="round"/>
<polyline points="640,650 750,650 870,650" stroke="#daaf68" stroke-width="26" fill="none" stroke-linejoin="round"/>
<polyline points="750,650 755,800" stroke="#daaf68" stroke-width="24" fill="none" stroke-linejoin="round"/>
<polyline points="170,620 390,650 420,650" stroke="#b2b8b7" stroke-width="26" fill="none" stroke-linejoin="round"/>
<polyline points="740,250 750,290 750,355" stroke="#b2b8b7" stroke-width="24" fill="none" stroke-linejoin="round"/>
<polyline points="170,620 165,820" stroke="#b2b8b7" stroke-width="22" fill="none" stroke-linejoin="round"/>
<polyline points="290,885 330,930" stroke="#b2b8b7" stroke-width="22" fill="none" stroke-linejoin="round"/>
<polyline points="1370,900 1390,1040" stroke="#b2b8b7" stroke-width="24" fill="none" stroke-linejoin="round"/>
<polyline points="390,650 470,650" stroke="#daaf68" stroke-width="30" fill="none" stroke-linejoin="round"/>
<polyline points="470,650 640,650" stroke="#daaf68" stroke-width="30" fill="none" stroke-linejoin="round"/>
<polyline points="870,650 1030,650" stroke="#daaf68" stroke-width="26" fill="none" stroke-linejoin="round"/>
<polyline points="1030,650 1100,700" stroke="#daaf68" stroke-width="26" fill="none" stroke-linejoin="round"/>
<polyline points="755,800 755,945" stroke="#daaf68" stroke-width="24" fill="none" stroke-linejoin="round"/>
<polyline points="755,945 835,1020" stroke="#daaf68" stroke-width="24" fill="none" stroke-linejoin="round"/>
<polyline points="165,820 290,885" stroke="#b2b8b7" stroke-width="22" fill="none" stroke-linejoin="round"/>
<rect x="226.5" y="842.5" width="2.0" height="20.0" fill="#20272c" stroke="#a0a2a1" transform="rotate(27.474431626277134 227.5 852.5)"/>
<rect x="105.0" y="240.0" width="35.0" height="40.0" fill="#20272c" stroke="#a0a2a1" transform="rotate(0 122.5 260.0)"/>
<rect x="255.0" y="240.0" width="45.0" height="40.0" fill="#20272c" stroke="#a0a2a1" transform="rotate(0 277.5 260.0)"/>
<rect x="229.0" y="398.0" width="32.0" height="24.0" fill="#20272c" stroke="#a0a2a1" transform="rotate(12 245.0 410.0)"/>
<rect x="246.0" y="490.0" width="28.0" height="20.0" fill="#20272c" stroke="#a0a2a1" transform="rotate(-10 260.0 500.0)"/>
<rect x="355.0" y="462.0" width="40.0" height="26.0" fill="#20272c" stroke="#a0a2a1" transform="rotate(18 375.0 475.0)"/>
<rect x="188.0" y="711.0" width="34.0" height="28.0" fill="#20272c" stroke="#a0a2a1" transform="rotate(-15 205.0 725.0)"/>
<rect x="375.0" y="734.0" width="30.0" height="22.0" fill="#20272c" stroke="#a0a2a1" transform="rotate(8 390.0 745.0)"/>
<rect x="272.0" y="320.0" width="26.0" height="20.0" fill="#20272c" stroke="#a0a2a1" transform="rotate(-12 285.0 330.0)"/>
<rect x="344.0" y="688.0" width="32.0" height="24.0" fill="#20272c" stroke="#a0a2a1" transform="rotate(12 360.0 700.0)"/>
<rect x="70.0" y="710.0" width="45.0" height="70.0" fill="#20272c" stroke="#a0a2a1" transform="rotate(0 92.5 745.0)"/>
<rect x="247.344355" y="984.0" width="40.31129" height="2.0" fill="#20272c" stroke="#a0a2a1" transform="rotate(-29.74488129694222 267.5 985.0)"/>
<rect x="372.292385" y="986.5" width="60.41523" height="2.0" fill="#20272c" stroke="#a0a2a1" transform="rotate(24.443954780416536 402.5 987.5)"/>
<rect x="427.5" y="1026.5" width="35.0" height="2.0" fill="#20272c" stroke="#a0a2a1" transform="rotate(90.0 445.0 1027.5)"/>
<rect x="437.5" y="1141.5" width="15.0" height="2.0" fill="#20272c" stroke="#a0a2a1" transform="rotate(90.0 445.0 1142.5)"/>
<rect x="216.399235" y="1019.0" width="52.20153" height="2.0" fill="#20272c" stroke="#a0a2a1" transform="rotate(106.69924423399362 242.5 1020.0)"/>
<rect x="222.83483" y="1126.5" width="74.33034" height="2.0" fill="#20272c" stroke="#a0a2a1" transform="rotate(47.72631099390627 260.0 1127.5)"/>
<rect x="382.0" y="995.0" width="28.0" height="35.0" fill="#20272c" stroke="#a0a2a1" transform="rotate(0 396.0 1012.5)"/>
<rect x="260.0" y="1075.0" width="25.0" height="15.0" fill="#20272c" stroke="#a0a2a1" transform="rotate(0 272.5 1082.5)"/>
<rect x="475.0" y="1135.0" width="35.0" height="35.0" fill="#20272c" stroke="#a0a2a1" transform="rotate(0 492.5 1152.5)"/>
<rect x="1245.0" y="409.0" width="125.0" height="2.0" fill="#20272c" stroke="#a0a2a1" transform="rotate(0.0 1307.5 410.0)"/>
<rect x="1240.0" y="549.0" width="20.0" height="2.0" fill="#20272c" stroke="#a0a2a1" transform="rotate(0.0 1250.0 550.0)"/>
<rect x="1137.5" y="511.5" width="75.0" height="2.0" fill="#20272c" stroke="#a0a2a1" transform="rotate(90.0 1175.0 512.5)"/>
<rect x="1250.0" y="420.0" width="60.0" height="40.0" fill="#20272c" stroke="#a0a2a1" transform="rotate(0 1280.0 440.0)"/>
<rect x="1270.0" y="680.0" width="60.0" height="40.0" fill="#20272c" stroke="#a0a2a1" transform="rotate(0 1300.0 700.0)"/>
<rect x="1038.0" y="470.0" width="24.0" height="20.0" fill="#20272c" stroke="#a0a2a1" transform="rotate(0 1050.0 480.0)"/>
<rect x="1368.0" y="770.0" width="24.0" height="20.0" fill="#20272c" stroke="#a0a2a1" transform="rotate(0 1380.0 780.0)"/>
<rect x="1418.0" y="640.0" width="24.0" height="20.0" fill="#20272c" stroke="#a0a2a1" transform="rotate(0 1430.0 650.0)"/>
<rect x="1140.0" y="989.0" width="180.0" height="2.0" fill="#20272c" stroke="#a0a2a1" transform="rotate(0.0 1230.0 990.0)"/>
<rect x="1140.0" y="1119.0" width="75.0" height="2.0" fill="#20272c" stroke="#a0a2a1" transform="rotate(0.0 1177.5 1120.0)"/>
<rect x="1310.0" y="1119.0" width="10.0" height="2.0" fill="#20272c" stroke="#a0a2a1" transform="rotate(0.0 1315.0 1120.0)"/>
<rect x="1155.0" y="995.0" width="20.0" height="20.0" fill="#20272c" stroke="#a0a2a1" transform="rotate(0 1165.0 1005.0)"/>
<rect x="1210.0" y="995.0" width="20.0" height="20.0" fill="#20272c" stroke="#a0a2a1" transform="rotate(0 1220.0 1005.0)"/>
<rect x="1280.0" y="995.0" width="20.0" height="20.0" fill="#20272c" stroke="#a0a2a1" transform="rotate(0 1290.0 1005.0)"/>
<rect x="1340.0" y="1140.0" width="95.0" height="45.0" fill="#20272c" stroke="#a0a2a1" transform="rotate(0 1387.5 1162.5)"/>
<rect x="1030.0" y="1170.0" width="50.0" height="50.0" fill="#20272c" stroke="#a0a2a1" transform="rotate(0 1055.0 1195.0)"/>
<rect x="-1.0" y="0.0" width="2.0" height="1300.0" fill="#20272c" stroke="#a0a2a1" transform="rotate(0 0.0 650.0)"/>
<rect x="1499.0" y="0.0" width="2.0" height="1300.0" fill="#20272c" stroke="#a0a2a1" transform="rotate(0 1500.0 650.0)"/>
<rect x="0.0" y="-1.0" width="1500.0" height="2.0" fill="#20272c" stroke="#a0a2a1" transform="rotate(0 750.0 0.0)"/>
<rect x="0.0" y="1299.0" width="1500.0" height="2.0" fill="#20272c" stroke="#a0a2a1" transform="rotate(0 750.0 1300.0)"/>
<circle cx="172.2" cy="225.75" r="5" fill="#f8d25c"/>
<circle cx="208.8" cy="184.06666" r="5" fill="#f8d25c"/>
<circle cx="432.86666" cy="377.8" r="5" fill="#f8d25c"/>
<circle cx="327.8" cy="372.6" r="5" fill="#f8d25c"/>
<circle cx="1362.8" cy="512.13333" r="5" fill="#f8d25c"/>
<circle cx="1398.2" cy="469.42857" r="5" fill="#f8d25c"/>
<circle cx="1339.25" cy="1040.0" r="5" fill="#f8d25c"/>
<circle cx="1391.96667" cy="988.86667" r="5" fill="#f8d25c"/>
<circle cx="482.8" cy="1080.0" r="5" fill="#f8d25c"/>
<circle cx="583.68" cy="1080.0" r="5" fill="#f8d25c"/>
<circle cx="452.13333" cy="842.8" r="5" fill="#f8d25c"/>
<circle cx="409.625" cy="905.5" r="5" fill="#f8d25c"/>
<circle cx="841.94" cy="686.6" r="5" fill="#f8d25c"/>
<circle cx="918.8" cy="650.0" r="5" fill="#f8d25c"/>
<circle cx="1153.76667" cy="776.73333" r="5" fill="#f8d25c"/>
<circle cx="1127.8" cy="864.73334" r="5" fill="#f8d25c"/>
<circle cx="1396.96667" cy="858.86667" r="5" fill="#f8d25c"/>
<circle cx="1393.63333" cy="945.53333" r="5" fill="#f8d25c"/>
<circle cx="1289.42857" cy="222.52857" r="5" fill="#f8d25c"/>
<circle cx="1352.2" cy="272.28571" r="5" fill="#f8d25c"/>
<circle cx="253.55" cy="1093.55" r="5" fill="#f8d25c"/>
<circle cx="264.73334" cy="1043.73334" r="5" fill="#f8d25c"/>
<circle cx="750.0" cy="297.15" r="5" fill="#f8d25c"/>
<circle cx="694.76667" cy="271.63333" r="5" fill="#f8d25c"/>
<circle cx="168.78" cy="668.8" r="5" fill="#f8d25c"/>
<circle cx="175.05714" cy="571.11429" r="5" fill="#f8d25c"/>
<circle cx="232.8" cy="186.06667" r="5" fill="#f8d25c"/>
<circle cx="262.0" cy="188.5" r="5" fill="#f8d25c"/>
<circle cx="178.2" cy="248.25" r="5" fill="#f8d25c"/>
<circle cx="288.8" cy="190.73333" r="5" fill="#f8d25c"/>
<circle cx="312.52" cy="553.88" r="5" fill="#f8d25c"/>
<circle cx="330.16667" cy="571.0" r="5" fill="#f8d25c"/>
<circle cx="311.1" cy="584.2" r="5" fill="#f8d25c"/>
<circle cx="743.4" cy="650.0" r="5" fill="#f8d25c"/>
<circle cx="750.6875" cy="670.625" r="5" fill="#f8d25c"/>
<circle cx="772.0" cy="650.0" r="5" fill="#f8d25c"/>
<circle cx="721.4" cy="650.0" r="5" fill="#f8d25c"/>
<circle cx="1210.0" cy="592.8" r="5" fill="#f8d25c"/>
<circle cx="1228.0" cy="592.8" r="5" fill="#f8d25c"/>
<circle cx="1192.125" cy="609.625" r="5" fill="#f8d25c"/>
<circle cx="330.0" cy="1065.75" r="5" fill="#f8d25c"/>
<circle cx="330.0" cy="1040.625" r="5" fill="#f8d25c"/>
<circle cx="330.0" cy="1088.25" r="5" fill="#f8d25c"/>
<circle cx="351.86667" cy="1036.4" r="5" fill="#f8d25c"/>
<circle cx="1243.7" cy="1040.0" r="5" fill="#f8d25c"/>
<circle cx="1269.25" cy="1040.0" r="5" fill="#f8d25c"/>
<circle cx="1250.0" cy="1062.0" r="5" fill="#f8d25c"/>
<circle cx="1222.7" cy="1040.0" r="5" fill="#f8d25c"/>
<circle cx="904.98" cy="1110.24" r="5" fill="#f8d25c"/>
<circle cx="1023.24" cy="363.05" r="5" fill="#f8d25c"/>
<circle cx="755.0" cy="928.6875" r="5" fill="#f8d25c"/>
<circle cx="176.18334" cy="868.8" r="5" fill="#f8d25c"/>
<circle cx="535.875" cy="650.0" r="5" fill="#f8d25c"/>
<circle cx="1403.63333" cy="685.53333" r="5" fill="#f8d25c"/>
<circle cx="1085.38" cy="1145.44" r="5" fill="#f8d25c"/>
<circle cx="1015.16667" cy="986.83333" r="5" fill="#f8d25c"/>
<circle cx="903.71428" cy="241.81428" r="5" fill="#f8d25c"/>
<circle cx="1118.0" cy="231.1" r="5" fill="#f8d25c"/>
<circle cx="318.44" cy="745.68" r="5" fill="#f8d25c"/>
<circle cx="1176.16667" cy="406.16667" r="5" fill="#f8d25c"/>
<circle cx="580.85714" cy="924.24286" r="5" fill="#f8d25c"/>
<circle cx="742.08" cy="1080.0" r="5" fill="#f8d25c"/>
<circle cx="190.48571" cy="421.97143" r="5" fill="#f8d25c"/>
<circle cx="575.1" cy="355.35" r="5" fill="#f8d25c"/>
<circle cx="434.1" cy="249.6" r="5" fill="#f8d25c"/>
<circle cx="1081.54286" cy="662.28571" r="5" fill="#f8d25c"/>
<circle cx="855.24" cy="353.05" r="5" fill="#f8d25c"/>
<circle cx="428.13334" cy="698.8" r="5" fill="#f8d25c"/>
<circle cx="294.4" cy="889.95" r="5" fill="#f8d25c"/>
<circle cx="1112.4" cy="508.0" r="5" fill="#f8d25c"/>
<circle cx="755.0" cy="807.975" r="5" fill="#f8d25c"/>
<circle cx="843.98333" cy="1020.73333" r="5" fill="#f8d25c"/>
<circle cx="1221.66667" cy="308.75" r="5" fill="#f8d25c"/>
<circle cx="1107.33333" cy="1040.0" r="5" fill="#f8d25c"/>
<circle cx="1258.53333" cy="476.4" r="5" fill="#f8d25c"/>
<circle cx="1006.57143" cy="236.67143" r="5" fill="#f8d25c"/>
<circle cx="1375.5" cy="372.14286" r="5" fill="#f8d25c"/>
<circle cx="166.18" cy="772.8" r="5" fill="#f8d25c"/>
<circle cx="200.01667" cy="972.8" r="5" fill="#f8d25c"/>
<circle cx="1180.25" cy="1160.0" r="5" fill="#f8d25c"/>
<circle cx="666.57142" cy="948.52858" r="5" fill="#f8d25c"/>
<circle cx="632.35" cy="650.0" r="5" fill="#f8d25c"/>
<circle cx="1104.5" cy="950.16667" r="5" fill="#f8d25c"/>
<circle cx="243.92" cy="344.64" r="5" fill="#f8d25c"/>
<circle cx="992.5" cy="1118.8" r="5" fill="#f8d25c"/>
<circle cx="402.8" cy="1137.24" r="5" fill="#f8d25c"/>
<circle cx="1407.41667" cy="587.16667" r="5" fill="#f8d25c"/>
<circle cx="932.94444" cy="1015.72222" r="5" fill="#f8d25c"/>
<circle cx="1400.3" cy="772.2" r="5" fill="#f8d25c"/>
<circle cx="818.0" cy="246.1" r="5" fill="#f8d25c"/>
<circle cx="659.1" cy="349.35" r="5" fill="#f8d25c"/>
<circle cx="939.24" cy="358.05" r="5" fill="#f8d25c"/>
<circle cx="1203.71428" cy="226.81428" r="5" fill="#f8d25c"/>
<circle cx="354.52" cy="451.88" r="5" fill="#f8d25c"/>
<circle cx="756.6" cy="569.675" r="5" fill="#f8d25c"/>
<circle cx="362.7" cy="813.55" r="5" fill="#f8d25c"/>
<circle cx="998.8" cy="650.0" r="5" fill="#f8d25c"/>
<circle cx="238.2" cy="629.3" r="5" fill="#f8d25c"/>
<circle cx="1107.24" cy="368.05" r="5" fill="#f8d25c"/>
<circle cx="478.1" cy="313.6" r="5" fill="#f8d25c"/>
<circle cx="325.05" cy="1165.05" r="5" fill="#f8d25c"/>
<circle cx="1177.1" cy="703.4" r="5" fill="#f8d25c"/>
<circle cx="822.98" cy="1094.24" r="5" fill="#f8d25c"/>
<circle cx="757.26667" cy="1003.7" r="5" fill="#f8d25c"/>
<circle cx="1297.2" cy="565.12" r="5" fill="#f8d25c"/>
<circle cx="314.44" cy="657.68" r="5" fill="#f8d25c"/>
<circle cx="420.0" cy="626.6" r="5" fill="#f8d25c"/>
<circle cx="512.28571" cy="904.81429" r="5" fill="#f8d25c"/>
<circle cx="654.08" cy="1080.0" r="5" fill="#f8d25c"/>
<circle cx="1095.25715" cy="593.71428" r="5" fill="#f8d25c"/>
<circle cx="330.0" cy="954.75" r="5" fill="#f8d25c"/>
<circle cx="382.0" cy="198.5" r="5" fill="#f8d25c"/>
<circle cx="795.94" cy="746.6" r="5" fill="#f8d25c"/>
<circle cx="680.94" cy="703.4" r="5" fill="#f8d25c"/>
<circle cx="183.62857" cy="488.25715" r="5" fill="#f8d25c"/>
<circle cx="1256.16" cy="1154.72" r="5" fill="#f8d25c"/>
<circle cx="438.8" cy="762.8" r="5" fill="#f8d25c"/>
<circle cx="1312.16" cy="1106.72" r="5" fill="#f8d25c"/>
<circle cx="719.35" cy="753.5" r="5" fill="#f8d25c"/>
<circle cx="785.1" cy="348.875" r="5" fill="#f8d25c"/>
<circle cx="160.0" cy="180.0" r="10" fill="#83d6ff"/>
<circle cx="380.0" cy="390.0" r="10" fill="#83d6ff"/>
<circle cx="1410.0" cy="520.0" r="10" fill="#83d6ff"/>
<circle cx="1390.0" cy="1040.0" r="10" fill="#83d6ff"/>
<circle cx="530.0" cy="1080.0" r="10" fill="#83d6ff"/>
<circle cx="460.0" cy="890.0" r="10" fill="#83d6ff"/>
<circle cx="870.0" cy="650.0" r="10" fill="#83d6ff"/>
<circle cx="1140.0" cy="820.0" r="10" fill="#83d6ff"/>
<circle cx="1370.0" cy="900.0" r="10" fill="#83d6ff"/>
<circle cx="1340.0" cy="220.0" r="10" fill="#83d6ff"/>
<circle cx="220.0" cy="1060.0" r="10" fill="#83d6ff"/>
<circle cx="740.0" cy="250.0" r="10" fill="#83d6ff"/>
<circle cx="170.0" cy="620.0" r="10" fill="#83d6ff"/>
</g>
<text x="200.0" y="1082.0" fill="white" text-anchor="middle" font-size="22" font-family="sans-serif">Входная площадь</text>
<text x="310.0" y="702.0" fill="white" text-anchor="middle" font-size="22" font-family="sans-serif">Ярмарка</text>
<text x="750.0" y="612.0" fill="white" text-anchor="middle" font-size="22" font-family="sans-serif">Озеро и остров</text>
<text x="1210.0" y="662.0" fill="white" text-anchor="middle" font-size="22" font-family="sans-serif">Большие аттракционы</text>
<text x="330.0" y="202.0" fill="white" text-anchor="middle" font-size="22" font-family="sans-serif">Цирк</text>
<text x="1250.0" y="222.0" fill="white" text-anchor="middle" font-size="22" font-family="sans-serif">Служебная территория</text>
</svg>